<svg xmlns="http://www.w3.org/2000/svg" xmlns:xlink="http://www.w3.org/1999/xlink" version="1.1" x="0px" y="0px" viewBox="0 0 100 125" enable-background="new 0 0 100 100" xml:space="preserve"><g><defs><rect id="a" x="-2576.1" y="-528.4" width="232" height="75"/></defs><clipPath><use xlink:href="#a" overflow="visible"/></clipPath></g><rect x="-2693.8" y="-32.8" fill="#000000" width="2601" height="1494"/><circle fill="#000000" stroke="#FF1D25" stroke-width="2" stroke-linecap="round" stroke-miterlimit="10" cx="138.5" cy="-144.4" r="29"/><circle fill="#000000" stroke="#FF1D25" stroke-width="4" stroke-linecap="round" stroke-miterlimit="10" cx="138.5" cy="-144.4" r="19.1"/><circle fill="#000000" stroke="#FF1D25" stroke-width="4" stroke-linecap="round" stroke-miterlimit="10" cx="138.5" cy="-144.4" r="9.3"/><g><g><path d="M50.2,307.3c-26.7,0-48.5-21.8-48.5-48.5s21.8-48.5,48.5-48.5s48.5,21.8,48.5,48.5S77,307.3,50.2,307.3z M50.2,216.5    C27,216.5,8,235.5,8,258.8S27,301,50.2,301s42.2-18.9,42.2-42.2S73.5,216.5,50.2,216.5z"/></g><g><path d="M55.2,257.3h-9.9c-1,0-1.8-1-1.8-2s0.8-2,1.8-2h9.9c1,0,1.8,1,1.8,2S56.2,257.3,55.2,257.3z"/></g><g><path d="M55.2,283.3h-9.9c-1,0-1.8-1-1.8-2s0.8-2,1.8-2h9.9c1,0,1.8,1,1.8,2S56.2,283.3,55.2,283.3z"/></g><g><path d="M52.3,278.5c-0.5,0-1-0.4-1-0.9v-18.9c0-0.5,0.5-0.9,1-0.9s1,0.4,1,0.9v18.9C53.3,278.1,52.7,278.5,52.3,278.5z"/></g><g><path d="M48.3,278.5c-0.5,0-1-0.4-1-0.9v-18.9c0-0.5,0.5-0.9,1-0.9s1,0.4,1,0.9v18.9C49.3,278.1,48.7,278.5,48.3,278.5z"/></g><g><path d="M37.2,257.3h-9.9c-1,0-1.8-1-1.8-2s0.8-2,1.8-2h9.9c1,0,1.8,1,1.8,2S38.2,257.3,37.2,257.3z"/></g><g><path d="M37.2,283.3h-9.9c-1,0-1.8-1-1.8-2s0.8-2,1.8-2h9.9c1,0,1.8,1,1.8,2S38.2,283.3,37.2,283.3z"/></g><g><path d="M34.3,278.5c-0.5,0-1-0.4-1-0.9v-18.9c0-0.5,0.5-0.9,1-0.9s1,0.4,1,0.9v18.9C35.3,278.1,34.7,278.5,34.3,278.5z"/></g><g><path d="M30.3,278.5c-0.5,0-1-0.4-1-0.9v-18.9c0-0.5,0.5-0.9,1-0.9s1,0.4,1,0.9v18.9C31.3,278.1,30.7,278.5,30.3,278.5z"/></g><g><path d="M72.3,257.3h-9.9c-1,0-1.8-1-1.8-2s0.8-2,1.8-2h9.9c1,0,1.8,1,1.8,2S73.2,257.3,72.3,257.3z"/></g><g><path d="M72.3,283.3h-9.9c-1,0-1.8-1-1.8-2s0.8-2,1.8-2h9.9c1,0,1.8,1,1.8,2S73.2,283.3,72.3,283.3z"/></g><g><path d="M69.3,278.5c-0.5,0-1-0.4-1-0.9v-18.9c0-0.5,0.5-0.9,1-0.9s1,0.4,1,0.9v18.9C70.3,278.1,69.7,278.5,69.3,278.5z"/></g><g><path d="M65.3,278.5c-0.5,0-1-0.4-1-0.9v-18.9c0-0.5,0.5-0.9,1-0.9s1,0.4,1,0.9v18.9C66.3,278.1,65.7,278.5,65.3,278.5z"/></g><g><path d="M72.5,251.3H27.5c-0.8,0-1.4-0.3-1.7-1c-0.3-0.7,0-1.4,0.6-1.9l22.9-18.6c0.7-0.5,1.6-0.5,2.3,0l22,18.7    c0.6,0.5,0.8,1.1,0.5,1.8C73.9,250.9,73.2,251.3,72.5,251.3z M32.6,248.3h35l-17.2-14.5L32.6,248.3z"/></g></g><g><path d="M49.5,517.8c-26.3,0-47.8-21.4-47.8-47.8s21.4-47.8,47.8-47.8s47.8,21.4,47.8,47.8S75.8,517.8,49.5,517.8z M49.5,428.4   c-22.9,0-41.6,18.6-41.6,41.6s18.6,41.6,41.6,41.6s41.6-18.6,41.6-41.6S72.4,428.4,49.5,428.4z"/></g><g><path d="M36.3,465.1c-1,0-2-0.8-2-1.8v-19.5c0-1,1-1.8,2-1.8s2,0.8,2,1.8v19.5C38.3,464.3,37.2,465.1,36.3,465.1z"/></g><g><path d="M51.8,465.1c-1,0-1.5-0.8-1.5-1.8v-19.5c0-1,0.5-1.8,1.5-1.8s1.5,0.8,1.5,1.8v19.5C53.3,464.3,52.7,465.1,51.8,465.1z"/></g><g><path d="M57.3,465.1c-1,0-2-0.8-2-1.8v-19.5c0-1,1-1.8,2-1.8s2,0.8,2,1.8v19.5C59.3,464.3,58.2,465.1,57.3,465.1z"/></g><g><path d="M41.8,465.1c-1,0-1.5-0.8-1.5-1.8v-11.5c0-1,0.5-1.8,1.5-1.8s1.5,0.8,1.5,1.8v11.5C43.3,464.3,42.7,465.1,41.8,465.1z"/></g><g><path d="M47.3,465.1c-1,0-2-0.8-2-1.8v-11.5c0-1,1-1.8,2-1.8s2,0.8,2,1.8v11.5C49.3,464.3,48.2,465.1,47.3,465.1z"/></g><g><path d="M63.3,465.1c-1,0-2-0.8-2-1.8v-19.5c0-1,1-1.8,2-1.8c1,0,2,0.8,2,1.8v19.5C65.3,464.3,64.2,465.1,63.3,465.1z"/></g><g><path d="M49.2,501.4l-0.1,0c-1.8,0-3.5-0.8-4.8-2.1c-1.3-1.4-2-3.1-1.9-4.9c0-1,2.3-16.2,2.9-20.6H34.9c-0.5,0-0.9-0.4-0.9-0.9   v-6.1c0-0.5,0.4-0.9,0.9-0.9h28.7c0.5,0,0.9,0.4,0.9,0.9v6.1c0,0.5-0.4,0.9-0.9,0.9H53.3c0.6,4.5,2.8,19.8,2.8,20.8   C56.1,498.3,53,501.4,49.2,501.4z M35.8,471.9h10.4c0.3,0,0.5,0.1,0.7,0.3c0.2,0.2,0.2,0.5,0.2,0.7c-1.2,8.2-3,20.6-3,21.4   c0,1.4,0.5,2.7,1.5,3.7c1,1,2.2,1.6,3.6,1.6l0.1,0c2.8,0,5.1-2.3,5.1-5.1c0-0.9-1.7-13.4-2.9-21.6c0-0.3,0-0.5,0.2-0.7   c0.2-0.2,0.4-0.3,0.7-0.3h10.4v-4.3h-27V471.9z"/></g><g><path d="M49.3,496.8c-1.8,0-3.4-1.5-3.4-3.4s1.5-3.4,3.4-3.4c1.8,0,3.4,1.5,3.4,3.4S51.1,496.8,49.3,496.8z M49.3,491.9   c-0.9,0-1.6,0.7-1.6,1.6s0.7,1.6,1.6,1.6c0.9,0,1.6-0.7,1.6-1.6S50.2,491.9,49.3,491.9z"/></g><g><circle fill="#000000" stroke="#FF1D25" stroke-width="7" stroke-miterlimit="10" cx="233.3" cy="359.8" r="50.5"/><g><g><line fill="#000000" stroke="#FF1D25" stroke-width="4" stroke-linecap="round" stroke-miterlimit="10" x1="218.3" y1="352.3" x2="218.3" y2="330.3"/><line fill="#000000" stroke="#FF1D25" stroke-width="4" stroke-linecap="round" stroke-miterlimit="10" x1="236.3" y1="352.3" x2="236.3" y2="330.3"/><line fill="#000000" stroke="#FF1D25" stroke-width="4" stroke-linecap="round" stroke-miterlimit="10" x1="242.3" y1="352.3" x2="242.3" y2="330.3"/><line fill="#000000" stroke="#FF1D25" stroke-width="4" stroke-linecap="round" stroke-miterlimit="10" x1="224.3" y1="352.3" x2="224.3" y2="339.3"/><line fill="#000000" stroke="#FF1D25" stroke-width="4" stroke-linecap="round" stroke-miterlimit="10" x1="230.3" y1="352.3" x2="230.3" y2="339.3"/><line fill="#000000" stroke="#FF1D25" stroke-width="4" stroke-linecap="round" stroke-miterlimit="10" x1="248.3" y1="352.3" x2="248.3" y2="330.3"/></g><g><path fill="#000000" stroke="#FF1D25" stroke-width="2" stroke-linecap="round" stroke-linejoin="round" stroke-miterlimit="10" d="     M249.2,362.9V356h-32.5v6.9h12.8c0,0-3.4,23.1-3.4,24.4c-0.1,3.7,3,6.9,6.7,7c3.8,0.1,6.9-3,6.9-6.8c0-1.2-3.3-24.5-3.3-24.5     H249.2z"/><circle fill="#000000" stroke="#FF1D25" stroke-width="2" stroke-linecap="round" stroke-linejoin="round" stroke-miterlimit="10" cx="233" cy="386.3" r="2.8"/></g></g></g><text transform="matrix(1 0 0 1 -223.75 564.25)" font-family="'Roboto-Bold'" font-size="12">•</text><g><path d="M209,99.5c-27,0-49-22-49-49s22-49,49-49s49,22,49,49S236,99.5,209,99.5z M209,7.9c-23.5,0-42.6,19.1-42.6,42.6   s19.1,42.6,42.6,42.6s42.6-19.1,42.6-42.6S232.5,7.9,209,7.9z"/></g><g><path d="M192.3,78.7c-1,0-2-0.8-2-1.8V31.6c0-1,1-1.8,2-1.8s2,0.8,2,1.8v45.3C194.3,77.9,193.3,78.7,192.3,78.7z"/></g><g><path d="M223.2,64.4c-3,0-6.1-1.7-9.1-5.2c-2.7-3.1-5.6-4.7-8.5-4.6c-4.8,0-8.4,4.3-8.4,4.3c-0.3,0.4-0.9,0.4-1.3,0.1   c-0.4-0.3-0.4-0.9-0.1-1.3c0.2-0.2,4.1-4.9,9.8-5c3.5,0,6.9,1.7,9.9,5.3c2.8,3.2,5.6,4.8,8.2,4.5c3.9-0.3,6.4-4.4,6.5-4.4   c0.3-0.4,0.8-0.6,1.2-0.3c0.4,0.3,0.6,0.8,0.3,1.2c-0.1,0.2-3,4.9-7.8,5.3C223.7,64.4,223.4,64.4,223.2,64.4z"/></g><g><path d="M223.2,59.4c-3,0-6.1-1.7-9.1-5.2c-2.6-3-5.4-4.6-8.3-4.6c-4.9,0-8.6,4.5-8.6,4.5c-0.2,0.3-0.3,0.4-0.7,0.3   c-0.4-0.1-0.3-0.5-0.3-0.9v-22c0-0.2-0.3-0.4-0.1-0.6c0.2-0.2,4-4.9,9.7-4.9c3.5,0,6.7,1.8,9.8,5.3c2.6,3,5.1,4.5,7.6,4.5   c4.3,0,7-4.6,7-4.6c0.2-0.4,0.8-0.5,1.2-0.4c0.4,0.1,0.9,0.5,0.9,0.9v21.9c0,0.2-0.2,0.3-0.3,0.5C231.8,54.3,228.4,59.4,223.2,59.4   z M205.8,47.8c3.4,0,6.7,1.7,9.7,5.2c2.6,3,5.3,4.6,7.8,4.6c3.7,0,5.9-3.4,6.9-4.2v-19c-2,1.5-4,3.4-7,3.4c-3,0-6.1-1.7-9-5.1   c-2.7-3.1-5.6-4.7-8.6-4.7c-4.2,0-7.3,3.1-8.3,4v19.5C199.3,49.9,202.1,47.8,205.8,47.8z"/></g><g><line fill="#000000" stroke="#FF1D25" stroke-width="4" stroke-linecap="round" stroke-linejoin="round" stroke-miterlimit="10" x1="526.3" y1="-81.8" x2="526.3" y2="-131.8"/><path fill="#000000" stroke="#FF1D25" stroke-width="2" stroke-linecap="round" stroke-linejoin="round" stroke-miterlimit="10" d="   M531.3-112.7c0,0,9.7-9.9,20.2,0s17.8,0,17.8,0v-19.6c0,0-7.3,9.9-17.8,0c-10.5-9.9-20.2,0-20.2,0V-112.7z"/></g><g><g><path d="M50,98.5c-26.9,0-48.8-21.9-48.8-48.8S23.1,1,50,1s48.8,21.9,48.8,48.8S76.9,98.5,50,98.5z M50,7.3    c-23.4,0-42.4,19-42.4,42.4s19,42.4,42.4,42.4s42.4-19,42.4-42.4S73.4,7.3,50,7.3z"/></g><g><path d="M49.3,77.7c-14.6,0-26.4-11.9-26.4-26.4c0-14.6,11.9-26.4,26.4-26.4c4.8,0,9.6,1.3,13.7,3.8c0.4,0.3,0.6,0.8,0.3,1.2    c-0.3,0.4-0.8,0.6-1.2,0.3c-3.8-2.3-8.2-3.6-12.7-3.6c-13.6,0-24.6,11.1-24.6,24.6s11.1,24.6,24.6,24.6S74,64.9,74,51.3    c0-4.7-1.3-9.3-3.8-13.2c-0.3-0.4-0.1-1,0.3-1.2c0.4-0.3,1-0.1,1.2,0.3c2.7,4.2,4.1,9.1,4.1,14.2C75.8,65.9,63.9,77.7,49.3,77.7z"/></g><g><path d="M49.3,69.9c-10.3,0-18.6-8.3-18.6-18.6s8.3-18.6,18.6-18.6c2.8,0,5.5,0.6,8,1.8c0.9,0.4,1.3,1.5,0.9,2.4    c-0.4,0.9-1.5,1.3-2.4,0.9c-2-1-4.2-1.4-6.4-1.4c-8.3,0-15,6.7-15,15s6.7,15,15,15s15-6.7,15-15c0-2.3-0.5-4.5-1.5-6.6    c-0.4-0.9-0.1-2,0.8-2.4c0.9-0.4,2-0.1,2.4,0.8c1.3,2.6,1.9,5.3,1.9,8.2C68,61.6,59.6,69.9,49.3,69.9z"/></g><g><path d="M49.3,60.4c-5,0-9.1-4.1-9.1-9.1s4.1-9.1,9.1-9.1c0.5,0,0.9,0.4,0.9,0.9c0,0.5-0.4,0.9-0.9,0.9c-4,0-7.3,3.3-7.3,7.3    s3.3,7.3,7.3,7.3s7.3-3.3,7.3-7.3c0-0.5,0.4-0.9,0.9-0.9s0.9,0.4,0.9,0.9C58.5,56.3,54.4,60.4,49.3,60.4z"/></g><g><g><path d="M49.1,53.1c-0.2,0-0.4-0.1-0.6-0.2c-0.4-0.3-0.4-0.9-0.1-1.3l20.2-22.1c0.3-0.4,0.9-0.4,1.3-0.1c0.4,0.3,0.4,0.9,0.1,1.3     L49.8,52.8C49.6,53,49.4,53.1,49.1,53.1z"/></g><g><path d="M73.5,31.4c-0.1,0-0.1,0-0.2,0l-4.6-1.1l-1.5-4.5c-0.2-0.5,0.1-1,0.6-1.1c0.5-0.2,1,0.1,1.1,0.6l1.2,3.5l3.6,0.9     c0.5,0.1,0.8,0.6,0.7,1.1C74.3,31.1,73.9,31.4,73.5,31.4z"/></g><g><path d="M75.7,29c-0.1,0-0.1,0-0.2,0l-4.6-1.1l-1.5-4.5c-0.2-0.5,0.1-1,0.6-1.1c0.5-0.2,1,0.1,1.1,0.6l1.2,3.5l3.6,0.9     c0.5,0.1,0.8,0.6,0.7,1.1C76.5,28.7,76.1,29,75.7,29z"/></g><g><path d="M77.9,26.6c-0.1,0-0.1,0-0.2,0l-4.6-1.1L71.6,21c-0.2-0.5,0.1-1,0.6-1.1c0.5-0.2,1,0.1,1.1,0.6l1.2,3.5l3.6,0.9     c0.5,0.1,0.8,0.6,0.7,1.1C78.7,26.3,78.3,26.6,77.9,26.6z"/></g></g></g><polygon fill="#000000" stroke="#FF1D25" stroke-width="2" stroke-linecap="round" stroke-linejoin="round" stroke-miterlimit="10" points="  219.7,-129.6 228.5,-112.2 247.8,-109.5 233.9,-95.8 237.4,-76.6 220.1,-85.5 202.9,-76.3 206,-95.6 191.9,-109.1 211.2,-112 "/><g><path d="M357-11.9c-26.5,0-48-21.5-48-48s21.5-48,48-48s48,21.5,48,48S383.5-11.9,357-11.9z M357-101.6c-23,0-41.8,18.7-41.8,41.8   S334-18.1,357-18.1s41.8-18.7,41.8-41.8S380-101.6,357-101.6z"/></g><g><path d="M357.4-48.8c-9.8,0-17.7-8-17.7-17.7s8-17.7,17.7-17.7s17.7,8,17.7,17.7S367.2-48.8,357.4-48.8z M357.4-80.7   c-7.8,0-14.2,6.4-14.2,14.2s6.4,14.2,14.2,14.2c7.8,0,14.2-6.4,14.2-14.2S365.2-80.7,357.4-80.7z"/></g><g><path d="M357.4-57.1c-5.2,0-9.5-4.3-9.5-9.5s4.3-9.5,9.5-9.5c5.2,0,9.5,4.3,9.5,9.5S362.7-57.1,357.4-57.1z M357.4-74.3   c-4.3,0-7.7,3.5-7.7,7.7c0,4.3,3.5,7.7,7.7,7.7c4.3,0,7.7-3.5,7.7-7.7C365.1-70.8,361.7-74.3,357.4-74.3z"/></g><g><path d="M376.7-35.2c-0.3,0-0.5-0.1-0.7-0.3l-9.7-12c-0.3-0.4-0.3-0.9,0.1-1.3c0.4-0.3,0.9-0.2,1.3,0.1l8.5,10.6l1.1-5.3   c0.1-0.4,0.4-0.7,0.8-0.7l5.7-0.2l-10.3-9.8c-0.4-0.3-0.4-0.9,0-1.3c0.3-0.4,0.9-0.4,1.3,0l11.8,11.2c0.3,0.2,0.3,0.6,0.2,1   c-0.1,0.3-0.4,0.6-0.8,0.6l-7.1,0.3l-1.3,6.4c-0.1,0.3-0.3,0.6-0.7,0.7C376.8-35.2,376.7-35.2,376.7-35.2z"/></g><g><path d="M337.3-35.2c-0.1,0-0.1,0-0.2,0c-0.3-0.1-0.6-0.3-0.7-0.6l-1.9-6.5l-6.4-0.3c-0.4,0-0.7-0.2-0.8-0.6s0-0.7,0.2-1l11.8-11.2   c0.4-0.3,0.9-0.3,1.3,0c0.3,0.4,0.3,0.9,0,1.3l-10.3,9.8l5,0.2c0.4,0,0.7,0.3,0.8,0.6l1.6,5.5l8.7-10.7c0.3-0.4,0.9-0.4,1.3-0.1   c0.4,0.3,0.4,0.9,0.1,1.3l-9.7,12C337.9-35.4,337.6-35.2,337.3-35.2z"/></g></svg>