<svg xmlns="http://www.w3.org/2000/svg"  version="1.1" x="0px" y="0px" viewBox="0 0 400 431.39000000000004" style="enable-background:new 0 0 400 345.112;" xml:space="preserve"><g><path d="M20.813,153.363h-2.515v-49.15h18.413c5.38-3.947,12.011-6.285,19.181-6.285c7.169,0,13.8,2.338,19.18,6.285H195v49.15   h-63.045c-2.996,3.793-6.086,7.111-9.18,10H195v49.15H92.937v10H195v49.15H92.937v42.997H400v-42.997h-8.701v-226.6H400v-19   h-48.623V4V0h-3.998H245.57h-3.998v4v22.064h-72.338V4V0h-3.998h-114h-3.998v4v22.064H0v19h8.299v121.19   C12.337,159.818,16.865,155.831,20.813,153.363z M18.299,94.213v-49.15H195v49.15H18.299z M205,104.213h176.299v49.15H205V104.213z    M205,163.363h176.299v49.15H205V163.363z M205,271.664v-49.15h176.299v49.15H205z M381.299,94.213H205v-49.15h176.299V94.213z    M245.57,3.999h101.808v30H245.57V3.999z M51.236,3.999h114v30h-114V3.999z"/><path d="M18.299,271.664v-7.733c-0.909,0.197-1.834,0.341-2.781,0.398c-0.32,0.02-0.691,0.031-1.06,0.031   c-2.162,0-4.232-0.401-6.158-1.106v8.411H0v42.997h18.846v-42.997H18.299z"/><path d="M28.293,88.231h10v-37.5h-10V88.231z M30.293,54.731h6v9.333h-6V54.731z"/><path d="M42.531,88.231h10v-37.5h-10V88.231z M44.531,54.731h6v9.333h-6V54.731z"/><path d="M56.77,88.231h10v-37.5h-10V88.231z M58.77,54.731h6v9.333h-6V54.731z"/><path d="M71.008,88.231h10v-37.5h-10V88.231z M73.008,54.731h6v9.333h-6V54.731z"/><path d="M85.246,88.231h10v-37.5h-10V88.231z M87.246,54.731h6v9.333h-6V54.731z"/><path d="M227.293,88.231v-37.5h-10v37.5H227.293z M219.293,54.731h6v9.333h-6V54.731z"/><path d="M241.531,50.731h-10v37.5h10V50.731z M239.531,64.064h-6v-9.333h6V64.064z"/><path d="M255.77,50.731h-10v37.5h10V50.731z M253.77,64.064h-6v-9.333h6V64.064z"/><path d="M270.008,50.731h-10v37.5h10V50.731z M268.008,64.064h-6v-9.333h6V64.064z"/><path d="M284.246,50.731h-10v37.5h10V50.731z M282.246,64.064h-6v-9.333h6V64.064z"/><path d="M326.877,78.231h-37.5v10h37.5V78.231z M302.711,86.231h-9.334v-6h9.334V86.231z"/><path d="M326.877,63.992h-37.5v10h37.5V63.992z M302.711,71.992h-9.334v-6h9.334V71.992z"/><path d="M99.484,88.231h10v-37.5h-10V88.231z M101.484,54.731h6v9.333h-6V54.731z"/><path d="M113.723,88.231h10v-37.5h-10V88.231z M115.723,54.731h6v9.333h-6V54.731z"/><path d="M127.961,88.231h10v-37.5h-10V88.231z M129.961,54.731h6v9.333h-6V54.731z"/><path d="M182.592,196.564h-37.5v10h37.5V196.564z M158.424,204.564h-9.332v-6h9.332V204.564z"/><path d="M182.592,182.326h-37.5v10h37.5V182.326z M158.424,190.326h-9.332v-6h9.332V190.326z"/><rect x="92.937" y="196.564" width="11.654" height="10"/><rect x="92.937" y="182.326" width="11.654" height="10"/><path d="M123.723,206.564v-37.5h-7.729c-0.762,0.575-1.519,1.126-2.271,1.655v35.845H123.723z M121.723,173.064v9.333h-6v-9.333   H121.723z"/><path d="M137.961,169.064h-10v37.5h10V169.064z M135.961,182.397h-6v-9.333h6V182.397z"/><path d="M246.092,206.564h37.5v-10h-37.5V206.564z M250.092,198.564h9.332v6h-9.332V198.564z"/><path d="M249.426,192.326h37.5v-10h-37.5V192.326z M253.426,184.325h20.332v6h-20.332V184.325z"/><path d="M291.424,206.564h37.5v-10h-37.5V206.564z M295.424,198.564h9.334v6h-9.334V198.564z"/><path d="M295.758,192.326h37.5v-10h-37.5V192.326z M299.758,184.326h9.332v6h-9.332V184.326z"/><path d="M214.723,206.564h10v-37.5h-10V206.564z M216.723,173.064h6v9.333h-6V173.064z"/><path d="M228.961,206.564h10v-37.5h-10V206.564z M230.961,173.064h6v9.333h-6V173.064z"/><path d="M142.012,54.736l16.215,33.813l9.018-4.324l-16.217-33.813L142.012,54.736z M149.58,65.894l-4.035-8.415l5.408-2.595   l4.037,8.415L149.58,65.894z"/><path d="M167.695,50.412l-9.018,4.324l16.217,33.813l9.016-4.324L167.695,50.412z M166.246,65.894l-4.035-8.415l5.41-2.595   l4.035,8.415L166.246,65.894z"/><path d="M354.91,84.225l-16.215-33.813l-9.018,4.324l16.217,33.813L354.91,84.225z M337.246,65.894l-4.035-8.415l5.41-2.595   l4.035,8.415L337.246,65.894z"/><path d="M371.578,84.225l-16.217-33.813l-9.016,4.324l16.215,33.813L371.578,84.225z M353.914,65.894l-4.035-8.415l5.408-2.595   l4.037,8.415L353.914,65.894z"/><path d="M183.209,131.189h-37.982c-0.042,0.096-0.072,0.195-0.115,0.291c-0.515,1.143-1.043,2.251-1.577,3.344h16.675v9.397   h-21.856c-0.774,1.251-1.562,2.462-2.359,3.634h47.216V131.189z"/><path d="M183.209,111.189h-41.938c1.107,1.079,2.075,2.294,2.874,3.635h16.064v9.397h-13.506c-0.011,1.219-0.142,2.435-0.402,3.634   h36.908V111.189z"/><path d="M88.373,131.189c-0.124,5.357-1.542,10.4-3.967,14.82c0.773-0.321,1.569-0.671,2.395-1.074   c4.444-2.192,8.454-5.032,12.074-8.531v-5.215H88.373z"/><path d="M82.064,111.189c0.853,1.156,1.631,2.369,2.327,3.635h8.483v9.397h-5.084c0.23,1.189,0.394,2.403,0.49,3.634h17.768   c2.296-3.351,4.383-7.085,6.269-11.229c0.884-1.952,2.1-3.691,3.557-5.172v-0.266H82.064z"/><path d="M218.877,147.855h61.666v-16.666h-61.666V147.855z M224.043,134.823h33.5v9.397h-33.5V134.823z"/><path d="M288.211,147.855h61.666v-16.666h-61.666V147.855z M293.377,134.823h33.5v9.397h-33.5V134.823z"/><path d="M296.711,111.189v16.666h61.666v-16.666H296.711z M335.377,124.221h-33.5v-9.397h33.5V124.221z"/><path d="M289.875,111.189h-61.666v16.666h61.666V111.189z M266.875,124.221h-33.5v-9.397h33.5V124.221z"/><rect x="137.877" y="244.731" width="45.334" height="22"/><rect x="129.209" y="236.398" width="40" height="4.5"/><rect x="138.709" y="228.398" width="40" height="4.5"/><rect x="213.209" y="261.398" width="40" height="4.5"/><rect x="222.709" y="252.815" width="40" height="4.5"/><rect x="217.209" y="244.232" width="40" height="4.5"/><rect x="219.877" y="235.648" width="40" height="4.5"/><rect x="92.937" y="261.398" width="20.272" height="4.5"/><rect x="92.937" y="252.815" width="29.772" height="4.5"/><rect x="92.937" y="244.232" width="24.272" height="4.5"/><rect x="92.937" y="235.648" width="26.94" height="4.5"/><rect x="323.543" y="261.398" width="40" height="4.5"/><rect x="333.043" y="252.815" width="40" height="4.5"/><rect x="327.543" y="244.232" width="40" height="4.5"/><rect x="324.543" y="235.648" width="40" height="4.5"/><rect x="268.709" y="261.398" width="40" height="4.5"/><rect x="275.709" y="252.815" width="40" height="4.5"/><rect x="270.209" y="244.232" width="40" height="4.5"/><rect x="270.209" y="235.648" width="40" height="4.5"/><rect x="276.709" y="227.648" width="40" height="4.5"/><rect x="342.126" y="167.898" transform="matrix(0.9 -0.4359 0.4359 0.9 -47.4652 168.8945)" width="4.5" height="40"/><rect x="352.459" y="167.898" transform="matrix(0.9 -0.4358 0.4358 0.9 -46.4314 173.3813)" width="4.5" height="40"/><rect x="362.793" y="167.898" transform="matrix(0.9 -0.4359 0.4359 0.9 -45.3988 177.9063)" width="4.5" height="40"/><rect x="276.709" y="172.648" width="40" height="4.5"/><circle cx="55.893" cy="130.428" r="22.5"/><path d="M82.937,173.606c4.045-0.86,9.346-2.423,15.264-5.303c12.51-6.049,27.58-18.247,37.799-40.943   c1.818-4.026,0.031-8.766-3.994-10.585c-4.023-1.823-8.764-0.035-10.584,3.991c-8.783,19.301-20.604,28.404-30.234,33.154   c-4.816,2.353-9.101,3.548-12.098,4.147c-1.498,0.3-2.67,0.452-3.422,0.525c-0.16,0.016-0.291,0.027-0.412,0.037   c-0.016,0-0.031-0.002-0.047-0.002H36.574c-0.17,0-0.334,0.015-0.502,0.025c-1.816,0.04-4.748,0.452-8.076,2.129   c-5.381,2.667-11.178,8.502-15.236,18.84c-4.107,10.379-6.865,25.386-6.877,48.045c0,5.858,0.188,12.225,0.594,19.159   c0.25,4.251,3.775,7.532,7.981,7.532c0.158,0,0.316-0.004,0.476-0.014c4.408-0.259,7.775-4.045,7.516-8.456   c-0.391-6.65-0.568-12.708-0.566-18.222c-0.035-24.212,3.494-37.816,6.963-44.915v149.997c0,6.83,5.537,12.363,12.363,12.363   c6.828,0,12.365-5.533,12.365-12.363v-90.271h4.635v90.271c0,6.83,5.537,12.363,12.363,12.363c6.828,0,12.365-5.533,12.365-12.363   V173.606z"/></g></svg>