<svg xmlns="http://www.w3.org/2000/svg" version="1.1" x="0px" y="0px" viewBox="0 0 100 125">
    <g transform="translate(0,-952.36218)">
        <path style="text-indent:0;text-transform:none;direction:ltr;block-progression:tb;baseline-shift:baseline;color:#000000;enable-background:accumulate;"
              d="m 8.9999999,970.36217 c -3.2894,0 -6,2.71059 -6,6 l 0,44.00003 c 0,3.2894 2.7106,6 6,6 l 50.4062001,0 c -1.4668,2.6658 -2.9262,5.32 -4.4062,8 l 42,0 c -3.389,-6.0747 -6.6884,-12.1428 -10,-18.1875 l 0,-39.81253 c 0,-3.28941 -2.7106,-6 -6,-6 l -72.0000001,0 z m 0,4 72.0000001,0 c 1.1426,0 2,0.8574 2,2 l 0,31.53123 -1.125,-1 c -1.9374,-3.5065 -3.8874,-7.01867 -5.875,-10.53123 -0.6679,1.19148 -1.3054,2.37339 -1.9688,3.5625 l -5.6874,-5.0625 c -0.6628,-0.59273 -1.7368,-0.66072 -2.4688,-0.15625 l -14.75,10.15628 -18.8438,-16.03128 c -0.9382,-0.63265 -1.8123,-0.53814 -2.5,-0.0625 l -22.7812001,17.53128 0,-29.93753 c 0,-1.1426 0.8574,-2 2,-2 z m 43.0000001,4 c -3.8423,0 -7,3.15769 -7,7 0,3.84231 3.1577,7 7,7 3.8423,0 7,-3.15769 7,-7 0,-3.84231 -3.1577,-7 -7,-7 z m 0,4 c 1.6805,0 3,1.31945 3,3 0,1.68055 -1.3195,3 -3,3 -1.6805,0 -3,-1.31945 -3,-3 0,-1.68055 1.3195,-3 3,-3 z m -21.0625,10.53125 18.7813,15.96878 c 0.6601,0.5541 1.6921,0.6077 2.4062,0.125 l 14.7188,-10.12503 5.2187,4.62503 c -3.4963,6.2934 -7.0074,12.5814 -10.4687,18.875 l -52.5938001,0 c -1.1426,0 -2,-0.8574 -2,-2 l 0,-9.0313 L 30.9375,992.89342 z M 76,1004.4559 l 14,25.9063 -28,0 14,-25.9063 z m 0,4.9063 c -1.1046,0 -2,0.8954 -2,2 l 0,10 c 0,1.1046 0.8954,2 2,2 1.1046,0 2,-0.8954 2,-2 l 0,-10 c 0,-1.1046 -0.8954,-2 -2,-2 z m 0,15 c -1.3807,0 -2.5,1.1193 -2.5,2.5 0,1.3807 1.1193,2.5 2.5,2.5 1.3807,0 2.5,-1.1193 2.5,-2.5 0,-1.3807 -1.1193,-2.5 -2.5,-2.5 z"
              fill="#000000" fill-opacity="1" stroke="none" marker="none" visibility="visible" display="inline"
              overflow="visible"/>
    </g>
</svg>