<svg xmlns="http://www.w3.org/2000/svg" viewBox="0 0 1498.4677 1721.02475" version="1.1" x="0px" y="0px">
    <g transform="translate(-10021.193,5923.0999)">
        <path style=""
              d="m 10741.068,-4547.1942 c -76.4,-4.8199 -156.321,-34.1145 -219.375,-80.4108 -57.343,-42.1038 -103.562,-98.7158 -133.217,-163.1719 -8.544,-18.5722 -9.524,-21.0664 -17.016,-43.2908 -24.159,-71.6696 -28.142,-147.845 -11.7,-223.75 11.039,-50.9607 33.854,-103.4608 64.098,-147.5001 24.961,-36.3462 61.809,-74.2912 97.962,-100.8801 96.335,-70.8486 219.894,-97.0777 337.998,-71.7503 56.441,12.1037 112.472,37.3488 159.249,71.7503 36.153,26.5889 73.001,64.5339 97.962,100.8801 30.244,44.0393 53.059,96.5394 64.097,147.5001 16.443,75.905 12.459,152.0804 -11.699,223.75 -7.492,22.2244 -8.472,24.7186 -17.017,43.2908 -39.599,86.0738 -106.199,155.2341 -191.342,198.6997 -68.131,34.7811 -141.822,49.8151 -220,44.883 z m 70,-101.8136 c 23.441,-3.0809 37.189,-6.2314 59.945,-13.7364 111.427,-36.749 192.963,-131.1662 214.339,-248.1985 6.14,-33.6182 5.935,-77.8043 -0.523,-112.5 -8.226,-44.1938 -26.07,-87.4503 -50.861,-123.2964 -53.22,-76.9511 -134.462,-125.6363 -228.525,-136.946 -24.889,-2.9926 -65.017,-1.7291 -90,2.8338 -75.355,13.7635 -143.007,52.9663 -190.425,110.3481 -48.683,58.9122 -73.895,128.7065 -73.895,204.5605 0,44.0515 8.266,85.1052 25.13,124.8147 45.028,106.0285 145.964,181.1987 258.565,192.5617 7.563,0.7631 15.438,1.6228 17.5,1.9105 7.025,0.9795 44.957,-0.5392 58.75,-2.352 z m -216.249,-135.6848 -24.982,-25.005 42.078,-42.185 42.077,-42.1851 -4.126,-6.0079 c -5.744,-8.3625 -14.749,-26.9763 -19.167,-39.6171 -6.97,-19.9411 -8.361,-29.3951 -8.371,-56.875 -0.01,-27.226 1.02,-34.1206 8.403,-56.25 16.634,-49.8542 59.445,-92.5404 109.712,-109.3926 17.133,-5.7436 28.763,-7.663 50.639,-8.3575 18.497,-0.5872 23.133,-0.3198 35.625,2.0553 55.964,10.6397 100.882,44.033 125.527,93.3193 34.257,68.508 21.439,148.495 -32.428,202.3626 -24.921,24.9204 -54.577,40.8835 -89.752,48.3112 -16.662,3.5183 -47.248,3.8261 -63.986,0.644 -16.171,-3.0745 -33.605,-8.8633 -47.723,-15.8453 l -12.277,-6.0717 -43.134,43.0524 -43.134,43.0524 -24.981,-25.005 z m 224.115,-100.7318 c 22.264,-4.5793 41.186,-14.9854 57.759,-31.7656 68.296,-69.147 22.851,-186.5109 -74.375,-192.0787 -54.084,-3.0972 -102.62,33.2264 -116.354,87.076 -3.468,13.5983 -3.186,40.5546 0.569,54.375 11.503,42.337 46.115,74.5237 89.331,83.0717 9.111,1.8021 32.826,1.4285 43.07,-0.6784 z m -750.111,-197.0738 c -10.437,-18.7893 -15.348,-29.7181 -27.108,-60.3195 -6.831,-17.7756 -15.49,-55.097 -18.997,-81.8751 -2.038,-15.5683 -2.031,-72.0112 0.01,-87.5 12.744,-96.6392 55.683,-178.3605 127.144,-241.979 37.13,-33.0552 77.03,-56.2579 128.696,-74.8392 39.756,-14.2982 61.352,-18.7311 98.765,-20.2728 l 18.766,-0.7733 3.59,-10.7553 c 26.185,-78.4354 84.58,-149.9848 160.753,-196.9649 11.782,-7.2666 44.202,-24.2247 55,-28.7696 37.929,-15.9633 77.006,-26.7022 120.625,-33.1492 26.838,-3.9666 80.1,-4.5738 110,-1.254 28.717,3.1884 67.327,11.5269 93.75,20.2472 50.78,16.7583 99.889,43.5133 138.125,75.251 50.301,41.7516 88.882,94.5468 110.17,150.7591 l 5.917,15.625 11.644,2.032 c 35.002,6.1081 72.795,18.7817 106.529,35.7238 62.505,31.392 120.066,85.5072 155.29,145.9942 8.973,15.4086 10.319,17.9855 17.503,33.5069 16.692,36.0652 27.695,74.544 33.133,115.8686 2.029,15.4149 2.049,71.8027 0.03,88.1245 -1.723,13.9433 -8.122,46.6312 -11.011,56.2501 -4.859,16.1783 -12.351,38.1625 -15.122,44.375 -12.874,28.8632 -17.874,38.7094 -27.609,54.375 l -4.661,7.5 -102.392,0 -102.391,0 -1.669,-6.875 c -0.919,-3.7813 -3.018,-11.375 -4.665,-16.875 -1.647,-5.5 -4.487,-15.0625 -6.311,-21.25 -8.862,-30.0653 -30.275,-77.5235 -46.948,-104.0518 -4.091,-6.5085 -7.438,-12.0872 -7.438,-12.397 0,-0.3099 -2.226,-3.7669 -4.947,-7.6823 -40.141,-57.7651 -80.031,-97.6558 -137.796,-137.797 -3.916,-2.7208 -7.373,-4.947 -7.683,-4.947 -0.31,0 -5.888,-3.3469 -12.397,-7.4375 -26.528,-16.6734 -73.986,-38.0866 -104.052,-46.9483 -6.187,-1.8238 -15.75,-4.6657 -21.25,-6.3154 -19.119,-5.7349 -43.645,-10.3732 -73.75,-13.9476 -26.27,-3.1191 -84.979,-3.1191 -111.25,0 -30.105,3.5744 -54.63,8.2127 -73.75,13.9476 -5.5,1.6497 -15.062,4.4916 -21.25,6.3154 -30.065,8.8617 -77.523,30.2749 -104.051,46.9483 -6.509,4.0906 -12.088,7.4375 -12.397,7.4375 -0.31,0 -3.767,2.2262 -7.683,4.947 -57.765,40.1412 -97.656,80.0319 -137.797,137.797 -2.721,3.9154 -4.947,7.3724 -4.947,7.6823 0,0.3098 -3.347,5.8885 -7.437,12.397 -16.674,26.5283 -38.087,73.9865 -46.949,104.0518 -1.823,6.1875 -4.663,15.75 -6.311,21.25 -1.647,5.5 -3.746,13.0937 -4.664,16.875 l -1.67,6.875 -106.373,0.3195 -106.373,0.3195 -4.343,-7.8195 z"
              fill="#6f5499"/>
    </g>
</svg>