<svg xmlns="http://www.w3.org/2000/svg" viewBox="0 0 1499.1989 1720.24675" version="1.1" x="0px" y="0px">
    <g transform="translate(-15438.06,3743.3416)">
        <path style=""
              d="m 16158.337,-2368.0583 c -76.401,-4.8199 -156.322,-34.1145 -219.375,-80.4108 -57.344,-42.1038 -103.563,-98.7158 -133.217,-163.1719 -8.544,-18.5722 -9.525,-21.0664 -17.016,-43.2908 -24.159,-71.6696 -28.142,-147.845 -11.7,-223.75 11.039,-50.9607 33.853,-103.4608 64.098,-147.5001 24.961,-36.3462 61.808,-74.2912 97.962,-100.8801 96.334,-70.8486 219.893,-97.0777 337.998,-71.7503 56.441,12.1037 112.472,37.3488 159.248,71.7503 36.154,26.5889 73.001,64.5339 97.962,100.8801 30.245,44.0393 53.059,96.5394 64.098,147.5001 16.442,75.905 12.459,152.0804 -11.7,223.75 -7.491,22.2244 -8.471,24.7186 -17.016,43.2908 -39.6,86.0738 -106.199,155.2341 -191.342,198.6997 -68.131,34.7811 -141.822,49.8151 -220,44.883 z m 70,-101.8136 c 23.44,-3.0809 37.189,-6.2314 59.945,-13.7364 111.426,-36.749 192.963,-131.1662 214.339,-248.1985 6.14,-33.6182 5.934,-77.8043 -0.524,-112.5 -8.226,-44.1938 -26.069,-87.4503 -50.861,-123.2964 -53.22,-76.9511 -134.462,-125.6363 -228.524,-136.946 -24.889,-2.9926 -65.018,-1.7291 -90,2.8338 -75.356,13.7635 -143.007,52.9663 -190.425,110.3481 -48.683,58.9122 -73.895,128.7065 -73.895,204.5605 0,44.0515 8.265,85.1052 25.129,124.8147 45.029,106.0285 145.965,181.1987 258.566,192.5617 7.563,0.7631 15.438,1.6228 17.5,1.9105 7.024,0.9795 44.957,-0.5392 58.75,-2.352 z m -83.125,-184.7405 0,-90.3056 -42.194,42.1806 c -23.207,23.1993 -42.686,42.1806 -43.286,42.1806 -0.601,0 -14.877,-13.8448 -31.724,-30.7661 l -30.633,-30.766 94.853,-94.859 c 52.169,-52.1724 95.417,-94.8572 96.106,-94.8551 0.689,0 43.656,42.7808 95.481,95.0638 l 94.228,95.06 -30.704,30.5612 c -16.887,16.8086 -31.161,30.5612 -31.721,30.5612 -0.559,0 -19.442,-18.4187 -41.961,-40.9304 l -40.945,-40.9304 0,89.0554 0,89.0554 -43.75,0 -43.75,0 0,-90.3056 z m -115,-310.9444 0,-43.75 157.5,0 157.5,0 0,43.75 0,43.75 -157.5,0 -157.5,0 0,-43.75 z m -545.75,58.4444 c -14.205,-25.8466 -25.37,-53.9213 -33.516,-84.2704 -14.064,-52.3988 -16.657,-107.1101 -7.576,-159.8681 3.603,-20.9326 3.867,-22.1197 9.187,-41.181 17.42,-62.4272 49.21,-116.9725 95.155,-163.2707 19.379,-19.5282 33.937,-32.0858 51.804,-44.6876 29.282,-20.6525 64.419,-38.3648 99.269,-50.0405 13.405,-4.4913 44.678,-12.6257 48.541,-12.626 1.506,-10e-5 3.057,-0.515 3.446,-1.1443 0.389,-0.6293 5.062,-1.5467 10.386,-2.0388 5.323,-0.492 9.993,-1.3827 10.377,-1.9793 0.384,-0.5965 10.07,-1.4543 21.525,-1.906 l 20.828,-0.8215 2.697,-8.2426 c 7.117,-21.7551 20.495,-51.4793 30.13,-66.9455 15.656,-25.1322 24.24,-37.0296 39.442,-54.6653 22.638,-26.2634 58.714,-57.3217 86.108,-74.1319 62.338,-38.2539 119.702,-57.8403 196.697,-67.1614 13.998,-1.6946 76.478,-1.6533 90,0.059 29.591,3.7482 44.592,6.4152 65.625,11.6674 122.744,30.651 220.922,107.3066 270.316,211.0595 4.092,8.5938 8.086,17.5938 8.877,20 0.791,2.4063 2.809,7.75 4.485,11.875 2.909,7.1578 3.293,7.5467 8.435,8.5227 26.453,5.0214 55.211,12.7962 73.512,19.8741 86.234,33.351 153.586,91.1807 198.405,170.3532 14.242,25.1584 28.343,59.1925 34.181,82.5 1.377,5.5 3.037,11.4063 3.688,13.125 2.87,7.5792 8.955,48.4881 10.217,68.6889 1.413,22.6064 0.01,59.125 -2.829,73.8559 -0.725,3.7566 -2.633,13.8615 -4.241,22.4553 -7.779,41.5769 -24.851,85.7564 -47.553,123.0625 l -5.363,8.8125 -102.237,0 -102.237,0 -1.669,-6.875 c -0.919,-3.7813 -3.018,-11.375 -4.665,-16.875 -1.647,-5.5 -4.487,-15.0625 -6.311,-21.25 -8.862,-30.0653 -30.275,-77.5235 -46.948,-104.0518 -4.091,-6.5085 -7.438,-12.0871 -7.438,-12.397 0,-0.3099 -2.226,-3.7669 -4.947,-7.6823 -40.141,-57.7651 -80.032,-97.6558 -137.797,-137.797 -3.915,-2.7208 -7.372,-4.947 -7.682,-4.947 -0.31,0 -5.889,-3.3469 -12.397,-7.4375 -26.528,-16.6734 -73.987,-38.0866 -104.052,-46.9483 -6.187,-1.8238 -15.75,-4.6657 -21.25,-6.3154 -19.119,-5.7349 -43.645,-10.3732 -73.75,-13.9476 -26.271,-3.1191 -84.979,-3.1191 -111.25,0 -30.105,3.5744 -54.631,8.2127 -73.75,13.9476 -5.5,1.6497 -15.062,4.4916 -21.25,6.3154 -30.065,8.8617 -77.523,30.2749 -104.052,46.9483 -6.508,4.0906 -12.087,7.4375 -12.397,7.4375 -0.31,0 -3.767,2.2262 -7.682,4.947 -57.765,40.1412 -97.656,80.0319 -137.797,137.797 -2.721,3.9154 -4.947,7.3724 -4.947,7.6823 0,0.3098 -3.347,5.8885 -7.438,12.397 -16.673,26.5283 -38.086,73.9865 -46.948,104.0518 -1.824,6.1875 -4.664,15.75 -6.311,21.25 -1.647,5.5 -3.746,13.0937 -4.664,16.875 l -1.67,6.875 -106.181,0.3194 -106.18,0.3195 -6.358,-11.5695 z"
              fill="#6f5499"/>
    </g>
</svg>